<?xml version="1.0" encoding="UTF-8"?>
<svg id="Layer_2" data-name="Layer 2" xmlns="http://www.w3.org/2000/svg" viewBox="0 0 589.51 585.55">
  <defs>
    <style>
      .cls-1 {
        fill: #399949;
      }

      .cls-2 {
        fill: #0c163b;
      }
    </style>
  </defs>
  <g id="Layer_1-2" data-name="Layer 1">
    <g>
      <path class="cls-2" d="M589.45,71.52c-3.88-35.93-20.53-51.86-50.31-67.04-4.25-2.16-13.04-2.39-18.07-4.44l-453.67-.04c-4.36,2.38-9.67,1.82-15.92,4.06C22.54,14.44,1.54,42.67,0,73.47v440.65c2.55,37.16,32.26,67.97,69.44,71.43h449.63c38.09-3.22,67.6-34.74,70.44-72.43l-.06-441.6ZM518.04,558.53h-223.29V28.05h226.28c19.47,2.32,37.74,20.19,40.47,39.46l.04,446.61c-.45,20.09-23.56,44.41-43.5,44.41Z"/>
      <path class="cls-1" d="M525.73,342.77c-27.27,38.97-40.15,84.42-38.15,132.19h-147.85c1.33-47.9-2.23-96.64-20.86-141.16,4.73-7.52,11.93,3.06,15.28,7.37,10.81,13.87,19.49,32.44,25.57,48.86,1.74.24.94-2.27.99-3.48,1.69-44.32-3.15-95.92-15.27-138.59-2.24-7.88-8.48-20.61-9.48-27.51-.73-5.02,1.27-9.28,6.75-6.73,1.18.56,8.56,8.37,9.97,10.01,4.65,5.38,8.31,11.77,12.44,17.54l16.56,29.88c.12-4,1.63-7.81,2.98-11.5,15.33-41.84,40.84-84.79,75.47-113.35,6.77-5.58,28.08-21.27,36.01-21.97,4.15-.37,6.59,3.29,4.95,6.93-.98,2.18-16.08,16.44-19.48,20.54-56.37,68.09-78.32,166.74-74.95,253.73.05,1.21-.75,3.72.99,3.48,6.9-40.15,21.26-80.07,45.15-113.19,14.05-19.48,33.37-40.34,53.85-53.05,4.23-2.63,26.11-16.41,25.99-5.07-.04,3.93-14.6,17.73-18.06,21.99-34.03,41.93-61.84,104.62-65.95,158.83-.09,1.19-.83,5.47.98,5.48,5.63-21.73,16.8-43.19,30.58-60.83,8.38-10.72,20.22-22.79,31.46-30.48,4.28-2.93,22.1-14.93,24.76-5.89,1,3.43-8.27,12.53-10.68,15.97Z"/>
    </g>
  </g>
</svg>